<svg xmlns="http://www.w3.org/2000/svg" width="289.149" height="299.652" viewBox="0 0 289.149 299.652">
  <defs>
    <style>
      .cls-1 {
        fill: #61a798;
      }

      .cls-2 {
        fill: #283552;
      }
    </style>
  </defs>
  <g id="_24040511582994873" data-name="24040511582994873" transform="matrix(0.875, 0.485, -0.485, 0.875, 113.617, 0)">
    <path id="Path_235" data-name="Path 235" class="cls-1" d="M57.775,51.506a6.043,6.043,0,0,0-3.256-4.386C48.856,44.3,36.43,40.127,36.43,40.127v-4.1l.346-.261a11.871,11.871,0,0,0,4.507-7.544l.07-.437h.337a4.586,4.586,0,0,0,4.244-2.854,4.994,4.994,0,0,0,.624-2.419,4.6,4.6,0,0,0-.327-1.7,2.373,2.373,0,0,0-.92-1.479l-1.146-.7.285-1.244C46.522,8.36,39.528.229,30.137,0c-.228,0-.455-.007-.679,0s-.45,0-.679,0C19.389.229,12.4,8.36,14.466,17.388l.285,1.244-1.146.7a2.373,2.373,0,0,0-.92,1.479,4.6,4.6,0,0,0-.326,1.7,5,5,0,0,0,.625,2.42,4.586,4.586,0,0,0,4.244,2.853h.337l.07.437a11.871,11.871,0,0,0,4.507,7.544l.346.261v4.1S10.061,44.3,4.4,47.12a6.043,6.043,0,0,0-3.256,4.386A131.565,131.565,0,0,0,0,66.72H58.917A131.561,131.561,0,0,0,57.775,51.506Z" transform="translate(68.19 29.223)"/>
    <path id="Path_236" data-name="Path 236" class="cls-2" d="M179.317,174.279v43.209a.89.89,0,0,1-.888.888H16.866a.89.89,0,0,1-.888-.888V16.866a.89.89,0,0,1,.888-.888H178.43a.89.89,0,0,1,.888.888V79.077L194.24,58.833c.337-.457.688-.905,1.056-1.34V16.866A16.888,16.888,0,0,0,178.43,0H16.866A16.888,16.888,0,0,0,0,16.866V217.488a16.888,16.888,0,0,0,16.866,16.866H178.429A16.888,16.888,0,0,0,195.3,217.488v-64.3l-13.742,18.642a16.335,16.335,0,0,1-2.237,2.45Z" transform="translate(0 0)"/>
    <path id="Path_237" data-name="Path 237" class="cls-1" d="M45.717,0H3.551a3.551,3.551,0,1,0,0,7.1H45.717a3.551,3.551,0,1,0,0-7.1Z" transform="translate(75.899 173.991)"/>
    <path id="Path_238" data-name="Path 238" class="cls-1" d="M85.664,0H3.551a3.551,3.551,0,0,0,0,7.1H85.664a3.551,3.551,0,1,0,0-7.1Z" transform="translate(35.952 149.135)"/>
    <path id="Path_239" data-name="Path 239" class="cls-1" d="M85.664,0H3.551a3.551,3.551,0,0,0,0,7.1H85.664a3.551,3.551,0,1,0,0-7.1Z" transform="translate(35.952 124.279)"/>
    <path id="Path_240" data-name="Path 240" class="cls-1" d="M89.09,3.209A16.433,16.433,0,0,0,66.108,6.684L7.669,85.953A3.95,3.95,0,0,0,7,87.41L.1,117.874a3.913,3.913,0,0,0,5.772,4.254l27.063-15.6a3.946,3.946,0,0,0,1.195-1.067L92.565,26.188A16.453,16.453,0,0,0,89.09,3.209ZM12.066,109.523,10.4,107.835l2.915-12.863,10.524,7.76Z" transform="translate(137.779 59.261)"/>
  </g>
</svg>
